<mxfile host="app.diagrams.net" modified="2024-02-24T00:20:32.185Z" agent="Mozilla/5.0 (Windows NT 10.0; Win64; x64; rv:123.0) Gecko/20100101 Firefox/123.0" etag="ZvNY3uSEkeG6eBOHE34X" version="23.1.2" type="github">
  <diagram name="Страница — 1" id="ototEjHYcX3X59DCs1pm">
    <mxGraphModel dx="2261" dy="782" grid="1" gridSize="10" guides="1" tooltips="1" connect="1" arrows="1" fold="1" page="1" pageScale="1" pageWidth="827" pageHeight="1169" math="0" shadow="0">
      <root>
        <mxCell id="0" />
        <mxCell id="1" parent="0" />
        <mxCell id="_kecTIgdlm-mXU0su9hx-2" value="" style="shape=image;verticalLabelPosition=bottom;labelBackgroundColor=default;verticalAlign=top;aspect=fixed;imageAspect=0;image=data:image/png,iVBORw0KGgoAAAANSUhEUgAABEAAAAL1CAYAAADHKJGzAAAgAElEQVR4Xuzdf+wkZ30n+Md7ZGNlIwGKNnIShdgsY4c5644gEcBzuZjliGITCeeCfKA77Zg/bobbTeRZ0JBlNRcHbhSUjIhsJbfK+LTCRieSOERrFBhOh3I2SsY4YRXQMTdOZrwYiyhCWl3C5pIFsURz9VT/qq6u/vHt/nT3092vr8RuPNP11FOvT099q9711PPcdKP6Sf2fr3zlKyn/z89mBf7mb/4m/f2///fr//khQIAAgf0T+Ku/+qv08pe/fP8OzBERIECAwE4KfOtb30r5f9/93d+9k/3f5U67JthO9V72spel17zmNemmZgBy990/nv7yr/7f9NKXvnQ7vTrQvX7p/76S/sF3/4P0ylfedqACDpsAAQL7K/DXf/3/pav/z3PpDW/80f09SEdGgAABAjsl8Pz156sA5D+l4//5q3eq37veWdcE26vgH/7BMymP/ZgIQP75+/6ndOK/esP2enaAe37bW99Rm7/v/WcO8OgdMgECBPZb4I+e/bfpgf/+3em5f/dv9/tAHR0BAgQI7IzAP/+5f5H+43/8Rrr4rx/ZmT7vQ0ddE2yviv/wpbcJQLbHP75nAUgpldAPAgQIxAu42Ik31SIBAgQIrCYgAFnNb9mtXRMsK7f6dgKQ1Q3DWhCAhFFqiAABAsUJuNgpriQ6RIAAgYMXEIBs5yvgmmA77nmvApDt2U/sWQBSUDF0hQABAsECLnaCQTVHgAABAisLCEBWJlyqAdcES7GFbCQACWGMaUQAEuOoFQIECJQo4GKnxKroEwECBA5bQACynfq7JtiOe96rAGR79hN7FoAUVAxdIUCAQLCAi51gUM0RIECAwMoCApCVCZdqwDXBUmwhGwlAQhhjGhGAxDhqhQABAiUKuNgpsSr6RIAAgcMWEIBsp/6uCbbjnvcqANme/cSeBSAFFUNXCBAgECzgYicYVHMECBAgsLKAAGRlwqUacE2wFFvIRksHIF/+Vz+TXv/+P0n/5OMvpA+/ZV5fnk7vfcu70kf/uPrcj74z/dZnfim9ed4mB/j3ApADLLpDJkDgYARmX+xUvydfWv2e7NJ44CPp3z9y95adZvQvVb/X/8Nmf68f7Rpky3R2T4AAgYIFZgYgX/5Ieu/pD/bu4dJrq/u+3x3d9325+r1wes79XbX9vT9yPb33P/xEujTvXjB/9nRKv/6Zd6VXtr0G7XzhWLo0rT/1NjPuOWcdy3B/L6aLb3lPShd/N52e6ERsEY8SgNS/8/7s5zquBfLv5l9Lt39hvL+935F3jP9urup18fSvpXN//Ce9A8n35Ber393TjnNWPWIpNt7akgFI/nLcnT5R/UP4/PGuYjSPo//Zn346XfqnP5SmF3Djx17cDgUgxZVEhwgQIBAmsEgAkhZ6qBDWpSM01H2RlT7zL9M/fHvacABylGuQIxyijxIgQOAABaYHIL3gO33o6fThfA9Xne9fPzzfj9/f/f6Dt6V3pMmwvnff91Pp/NUPpk/MvBfsh+w/+gvpjzoCkF47d6R/8thvTulPLtyse85ZxzIqei84SOl8K1BYx9difgDyYvr9f3Uxffj9v5k+P+xAFUJ96OfSP/und/dDoq7fzYMHFo2HE3WA9MHK7iPp1/vb5nr+7Nv/LL2t81hn12MdHptsc7kApJHCfbhO9WY8+Rkmf4PPTLmI2uRRF7qvuQHIMsndvPoUaqFbBAgQ2DcBAUhQRY9yDRK0S80QIEBgXwWmBiAT93C9gOHa+/Lo/9b93MRne1o5GLl0xy+k597fvF9sb9scSdIdgHS30+xPtbNZ95xVONMbiTK4H21tmztbj3j4ZErVaJfuUCD2GzAvAKlDpau/UI3SeFe67f/ojwB5sBqcUo26OXd8EDZN3lcPRkimxujM3NaH7+gNRhj7yQ8xfuXYeOg0NrKnux6xEptvbakAZDSK47bGP4QpnZ+A7fjCbf64i9zjzADkyMld14mgyMPWKQIECByEQEgA0rwwqdReVz2Zu/ST/1f9ZGf0hKjHOXpFtfq9++B70rnHesNeX/fAL6Rff6QaYtz/vdLcrm6vfYFUb7XoCJCOfVUXbD87tX+53f8z3fvxlD789t5TrtdVTwDfWz0BnPaq7MxrkLkPXTpe5Rk+cZzXlymOtc+Mv5vl3O5vPaLmz+qnj696pH3B6gHSQZwoHCSBDQssPgdIY4RF/Xvnk6OgoDMA6Z+zPnRHOvdvmjfZ4/eCv//gz6QPp59L773j19I7/s1PdYwAmXbuGx/xUY9IHLuZn3XP2dq2Hj2SX335uXTtRyZfKVlHSWZeE7RGV46/QdEfzVKPGO0Koj6YXv2hRuhU16ZRq7GDabbV+4v59ViHxmbbXCIAGf8yzXulZfLvBSDTSjwrADlScjfYwZQ0drNfMXsjQIAAgSywegDS//1ZDSPOw5HTZ6qLmrc3L2q6LhL7F3nV06Jfr+YReWV1kff7D95dP1X6o4s5mGg8EZt7kdRxUTh2kTa4oBwMsc3Dd9/TuKCdMVR3+C5yo39d74H3hzj3nkBWD+za70UvFICMjqPefnjBPRjyO3gvutmXf5w+k1/9/emuY5v1d4OgaYrz2FPJnt+5P36tAMQpgwCBjQksHICM/Y5ovwLzM9UrMK1pEfqBxG/99CfTO8bmr+i+Fxw/HzcOv2uUQv7r1u+sI91zdmz7s+lXqwcAL3TOqbGOYsy6JmgfS/u/R/eF4/0dvor04AujES/T/PoHNe0ec2o91oGx4TaPHoC0Ly5mXjB1XJy03s/a8PEWvbupAcjci9Lq/bzhe+O998Uu/VlKt9+R0ieq99je9vFj6donr6d0x0803hnLFNOeWM17Ctbxblm/roMLtzxx0GgIVpO9d2F3+pWznkjOGibXGsLWeFrWm6xo1hO6Rj9mPHWbmPRo7tO7Kalq84TT0UaeTGr0juH0fs90nBjS177BWMK53eaE8RGc66fGrYkdx97vnPUdbG43eI9x2SfZs74Xc77vXU/cO5+QF3160bkCBBYJQCYmQa2CgfPVJGX1eanz5r55/u8IGDrn6Oh/7uM/lT7x9vaN+bTXWhcYAdJ5kTVjyHRdk8mnT1NHmwwveGeENvMCkNbfdwUg4/OwTHuC2T8P5uHgx9+ZPnq1NYS4GdT8o9bvrWYf2v/3I9fTqx/7s3pCOyNACvhHqwsEDkBgsQCkH9AOX70Y/E4ajD6sfld9of+7qm+Wz685VPj19J7WBJ7t0Re9DabdcA/aGR+dONmfaQHIYO6RUSnb21bn+bdUIxHrRTo2N9IuPACpr9/79yTNa3kByMS/4iMHIN03Y/1huB03BUdK4w7gJDPrEKcGIAt/cauRW9XwrWvv+9X6yVj9lO+xao/VCgJ/lFcQyJPdVEPDerMrz3gq+Jnb0v+ab1qnPpHrnRye+9E/Sa/uP4Xrem+u+8lc/of5qymdnvIkrf1Esn0iGrt4HX9aVocqU5/QtWaUntlOq0qzQr/myaY9i/JEADIt2JlVi+rmpvMJZ8cJbngzMXi6OcNjlvOMJ5LDkGlR51b9xn+5zfsOtp82L/ske7bvKwchTef3vfdk99rUJ+4HftJy+EcSWCQAaU+C2pt0rvdKxFg4++Uq7H6kGl1RvdYyetVlyrvAEzPHD0aS5CGy46/OvK76fXGpc8WZ+QHIbf3V4bpQeq/WdD1Zmz5qZTDKo9ne3GuQeWHz3ABkynknT/o+mDn/CFWf9orS0LnRn1QNA3/+wdHw67fkd77zLP7VTUU9S/+cB05H6JaPEiBAYCiwSABSjyx4bHJSzVd/vBqR+Jb2BKm56VH4/c+ut1cwOcoIkO7PTvRnEKAsMNKkvW1+5ePSTw1WtykjAGlPML7IKzA5NB9ORNv8XbfwfeT4/CBGgAz/icxL7Ho3C+fqpZKqn/yk933X0+sXfh/rsM9GKwcgxy6Ov/s2cbHUOImkrpn7B//o8wVY86lirkvzhND7v9MDKT13Rx4ulodi/8t07/Vj6dXv/+RwKaapAcjEu4CNE+VPz5soqfEkLR9f42nZ6X/XMZFPa7j08Bs246lb9wiQKU9JZ12QLhqA5H5PrKIw8q4vgpsn9OY+Z40AmeUxy7nZZts4X4TPfcrb+Hc862Zj1pPpL3S8g7nsk+yZ+8k3lTOeQLefkHc+rT7s85ajX1xgmQCkPat9/W5uFXp8vl6O8KdSens1q/twBOAyAUjz3FZtP3HuHxzfggFI5/vbs9roj8Aam0y9+4K3bTFodewibd4IkNb5a3IESPUUsKMv9ap3qevd9OlPLTt/3+Q/zKPKBs6D0SHV0o4fri5eLz2SGsOv8ys4vZAr/7zuR1+7scn5Fv9W+yQBArsuMC8Ayb938gPVZhA/9wH3zBvwIwQgE+f03hwV7f7UNVhgDpDJbTtGKvcLOn1OrJiKh06Cmu+t3t94WDJtpOFE17uugXsfEoAMrzKmTKIy6yZw3sVIzHdoL1pZNQCZGGLWedLoTao2ORwtEw5OSB+pLqq7n4KNzfycbw5/pbde9wutJ1fDV2A6btxf/UBKH+1f0LUL97oH3plStcTV+GR+jVdF5j4t669t3Wp44iQ2o52FXoEZPCWdeNqYl6eqRuD0Q6HhZEwz/h1MBBx132ck5xMBSHvyw55X7+nhFI9Zzo0ApP1EcvqrTT3wWc55QsPmyXRiZMvYcU9+B7vnG5r/JHvmdl0zmbf882iq3m+Crifue3HqcRAbElg5AKlD7mrJ2eqVmHpEwEQgt+IrMFWLU+ebWmQS1IXCxvbvliO8AjPtWmPRULgyax/fkV6BqV4p/a2xcKTxesy0v8sjdyaC6kY/6okEq9deHqjeW62fQM56+ri5J5Mb+idhNwQIFCAwKwDpjbqbXBZ28ua4FWrk3wef/In07/OIwgXvBTtvuJvtDK4jpy1TO2c/045lvASbO8/OC0DyvcBiy+D2XhkfuwZvWSwzl6QAZHD9PzZZWPPr0j0ypPeJ8b/rvhkp4F9/AV2YPQfIrPeye6M1JoaYrRSAdD8FG1/6Kr/K0p8x+XS1//rVmdbkctMCkKvdT9LmniQHx9TxtKy+4Z/59LFR5BntzB8B0n5615wFu/F3eZTNYPTTWgOQ7ldrZnrM+iUxuFjvfCJ5xER4xtPW+ACk+0n25NDL0Xlp9H2e/n2/95OznrgXcOLQhZ0RWCYAya/A/Gz1Ckxekm/833R/gs7Hmqu9TH+d5BMLTYK62giQNw/mgqr2lV+7HE64Wp1T6ovgzhCl//StGjGal/p7c/Uq43CS1tYkqNMvxhrXGf1AYbTU4eToxTy/xuA83xWAfLSzL/0Rrp3Hdltv8tJpx90+306MAKlC7LGVaKatQLC5C/Od+UelowQIrCwwexncakWR4SjD9nV0/rvmKzCjEQjjN9yL3Qt2nePH2uk/dOzsz7x7zrnbDo5tc+fZ+QHIyHv6/fNgBEvj9aS8Wed1/rvScx8aTORdfaRxfTFx7zMImxa9r1r5W7jZBo4wB8iskGPeTVFVnLdU6VR+NSa/Z19PMuOnLbDyKjDtoV8TT8tiX4EZTNJ2qVpn+qMpp7zNobvTZuevwoJ6mNaUJ2mdrxw0Lgb7/6A7n5bNeZVk/P353qs0Cz11mxEk9ZafHJ8EdXiybr6SNCtwWOcrMNNerZnl3A9AptrMfco7+mbPfNq6zldgqi6M1WHGK0YzX4GpX9ea9cTdeYzA4gKLBCCTk6BWI7reV92w1yORqnP4cDnb/ArMr6bbfyXPpzRYunbahVtzuznL4K4wB0jv9/qUfdV/19W//iuV1b+1597fXwZ3sEzvGO2C1yBT5zfqvdo54TvYR3Xcg99haWpfZh3bjL+bGCmYa9Cfa2XiotwIkMX/RfkkAQIRAtMCkGlzLg3nnarOX+89/cHh/d1wwu5p5/o594KTAcj4+XBufwa/Zzr2s9i2035PRShPthEZgDzXXsK+494lv3558ZFfS+cGo/CHc991H58RIOupu1ZbArMCkMFQ59nJ3SDgyGnsaBLUwYVWPZnecD6WeRNQ5klQpz2Ra5yQ6pv33+xPwtdxouqcu6I3CWrn07Lmsk1dF8yDC8nOp2W9Y5r6FK7pPbOdVmHmPr1bbQTIcPLWrie01RPQVSdBPbJzHYDMeiK5qPOU+QiGafK87+Aqk6A2n2QvOgnq5Pe9Xrqt0d/BxMKjSSedxggsLnCUi53FW931T27qadv0/YyerI2H+Lsuq/8ECBBYRGDeHCCLtOEzRxdwTXB0s6gtjjACJGqX2pkmMDsAqbZaKLmLWga3muR06lOw9pDiwesDoz+vZyJ+LD+hHMyqnPvfnENm1hPJecvgNofjtS9qZz2ha8gf5anbAk/vmnOWDJ/sLToJ6ozle1+oZ92e4bi2ZXBnGWfHec6DIXlTvu3109a7Z7QT/SR7/lPp7u/7vCfuzmcEFhdwsdNlJQBZ/BvkkwQIEIgXEIDEmy7SomuCRZTW8xkByHpcl2p1bgBy1Fa7hj8t1MamLkgX6owP7aTAIk9bcwBSwo/vewlVOIQ+uNjZZgCyyDfMuWARJZ8hQGC/BAQg26mna4LtuOe9CkC2Zz+xZwFIQcXQlRUFBCArAtp8DwVc7OxhUR0SAQIEdlxAALKdArom2I67AGR77p17FoAUVhDdORABT30PpNBbP0wXO1svgQ4QIECAQEtAALKdr4Rrgu24C0C2576ZAKSw49MdAgQIHLKAi51Drr5jJ0CAQJkCApDt1MU1wXbcBSDbcxeAFGavOwQIEFi3gIuddQtrnwABAgSOKiAAOapYzOddE8Q4LtOKOUCWUVvTNuGvwKypn5olQIAAgaMLuNg5upktCBAgQGC9AgKQ9fpOa901wXbc814FINuzn9izAKSgYugKAQIEggVc7ASDao4AAQIEVhYQgKxMuFQDrgmWYgvZSAASwhjTiAAkxlErBAgQKFHAxU6JVdEnAgQIHLaAAGQ79XdNsB33vFcByPbsJ/YsACmoGLpCgACBYAEXO8GgmiNAgACBlQUEICsTLtWAa4Kl2EI2EoCEMMY0IgCJcdQKAQIEShRwsVNiVfSJAAEChy0gANlO/V0TbMc971UAsj37iT0LQAoqhq4QIEAgWMDFTjCo5ggQIEBgZQEByMqESzXgmmAptpCNBCAhjDGNCEBiHLVCgACBEgVc7JRYFX0iQIDAYQsIQLZTf9cE23HPexWAbM9+Ys8CkIKKoSsECBAIFnCxEwyqOQIECBBYWUAAsjLhUg24JliKLWQjAUgIY0wjApAYR60QIECgRAEXOyVWRZ8IECBw2AICkO3U3zXBdtzzXgUg27Of2LMApKBi6AoBAgSCBVzsBINqjgABAgRWFhCArEy4VAOuCZZiC9lIABLCGNOIACTGUSsECBAoUcDFTolV0ScCBAgctoAAZDv1d02wHfe8VwHI9uwn9iwAKagYukKAAIFgARc7waCaI0CAAIGVBQQgKxMu1YBrgqXYQjYSgIQwxjQiAIlx1AoBAgRKFHCxU2JV9IkAAQKHLSAA2U79XRNsxz3vVQCyPfuJPQtACiqGrhAgQCBYwMVOMKjmCBAgQGBlAQHIyoRLNeCaYCm2kI0EICGMMY0IQGIctUKAAIESBVzslFgVfSJAgMBhCwhAtlN/1wTbcc97FYBsz35izwKQgoqhKwQIEAgWcLETDKo5AgQIEFhZQACyMuFSDbgmWIotZCMBSAhjTCMCkBhHrRAgQKBEARc7JVZFnwgQIHDYAgKQ7dTfNcF23PNeBSDbs5/YswCkoGLoCgECBIIFXOwEg2qOAAECBFYWEICsTLhUA64JlmIL2UgAEsIY04gAJMZRKwQIEChRwMVOiVXRJwIECBy2gABkO/V3TbAd97xXAcj27Cf2LAApqBi6QoAAgWABFzvBoJojQIAAgZUFBCArEy7VgGuCpdhCNhKAhDDGNCIAiXHUCgECBEoUcLFTYlX0iQABAoctIADZTv1dE2zHPe+1MwB5wxten+78L3443faPfmh7PTvAPf/rRz+abnvlrekf/zf/9QEevUMmQIDAfgu8+MJX08f+9yfS+//n9+73gTo6AgQIENgZgSc//sn0rf/0rXT/O//bnenzPnTUNcH2qnjuX/wv6caNG+mm6v+5MejGsWPH0te+9rX0kpe8ZHs9O8A9f/vb305/7+/dVP3vPzvAo3fIBAgQ2G+B/Gv27/7u7/xu3e8yOzoCBAjslED+vZR/P7nv22zZXBNs1ru5t69//euTAcib3vSm9NBDD6W77757ez2zZwIECBAgQIAAAQIECBAgQIBAkMBNN90kAAmy1AwBAgQIECBAgAABAgQIECBQqIAApNDC6BYBAgQIECBAgAABAgQIECAQJyAAibPUEgECBAgQIECAAAECBAgQIFCogACk0MLoFgECBAgQIECAAAECBAgQIBAnIACJs9QSAQIECBAgQIAAAQIECBAgUKiAAKTQwugWAQIECBAgQIAAAQIECBAgECcgAImz1BIBAgQIECBAgAABAgQIECBQqIAApNDC6BYBAgQIECBAgAABAgQIECAQJyAAibPUEgECBAgQIECAAAECBAgQIFCogACk0MLoFgECBAgQIECAAAECBAgQIBAnIACJs9QSAQIECBAgQIAAAQIECBAgUKiAAKTQwugWAQIECBAgQIAAAQIECBAgECcgAImz1BIBAgQIECBAgAABAgQIECBQqIAApNDC6BYBAgQIECBAgAABAgQIECAQJyAAibPUEgECBAgQIECAAAECBAgQIFCogACk0MLoFgECBAgQIECAAAECBAgQIBAnIACJs9QSAQIECBAgQIAAAQIECBAgUKiAAKTQwugWAQIECBAgQIAAAQIECBAgECcgAImz1BIBAgQIECBAgAABAgQIECBQqIAApNDC6BYBAgQIECBAgAABAgQIECAQJyAAibPUEgECBAgQIECAAAECBAgQIFCogACk0MLoFgECBAgQIECAAAECBAgQIBAnIACJs9QSAQIECBAgQIAAAQIECBAgUKiAAKTQwugWAQIECBAgQIAAAQIECBAgECcgAImz1BIBAgQIECBAgAABAgQIECBQqIAApNDC6BYBAgQIECBAgAABAgQIECAQJyAAibPUEgECBAgQIECAAAECBAgQIFCogACk0MLoFgECBAgQIECAAAECBAgQIBAnIACJs9QSAQIECBAgQIAAAQIECBAgUKiAAKTQwugWAQIECBAgQIAAAQIECBAgECcgAImz1BIBAgQIECBAgAABAgQIECBQqIAApNDC6BYBAgQIECBAgAABAgQIECAQJyAAibPUEgECBAgQIECAAAECBAgQIFCogACk0MLoFgECBAgQIECAAAECBAgQIBAnIACJs9QSAQIECBAgQIAAAQIECBAgUKiAAKTQwugWAQIECBAgQIAAAQIECBAgECcgAImz1BIBAgQIECBAgAABAgQIECBQqIAApNDC6BYBAgQIECBAgAABAgQIECAQJyAAibPUEgECBAgQIECAAAECBAgQIFCogACk0MLoFgECBAgQIECAAAECBAgQIBAnIACJs9QSAQIECBAgQIAAAQIECBAgUKiAAKTQwugWAQIECBAgQIAAAQIECBAgECcgAImz1BIBAgQIECBAgAABAgQIECBQqIAApNDC6BYBAgQIECBAgAABAgQIECAQJyAAibPUEgECBAgQIECAAAECBAgQIFCogACk0MLoFgECBAgQIECAAAECBAgQIBAnIACJs9QSAQIECBAgQIAAAQIECBAgUKiAAKTQwugWAQIECBAgQIAAAQIECBAgECcgAImz1BIBAgQIECBAgAABAgQIECBQqIAApNDC6BYBAgQIECBAgAABAgQIECAQJyAAibPUEgECBAgQIECAAAECBAgQIFCogACk0MLoFgECBAgQIECAAAECBAgQIBAnIACJs9QSAQIECBAgQIAAAQIECBAgUKiAAKTQwugWAQIECBAgQIAAAQIECBAgECcgAImz1BIBAgQIECBAgAABAgQIECBQqIAApNDC6BYBAgQIECBAgAABAgQIECAQJyAAibPUEgECBAgQIECAAAECBAgQIFCogACk0MLoFgECBAgQIECAAAECBAgQIBAnIACJs9QSAQIECBAgQIAAAQIECBAgUKiAAKTQwugWAQIECBAgQIAAAQIECBAgECcgAImz1BIBAgQIECBAgAABAgQIECBQqIAApNDC6BYBAgQIECBAgAABAgQIECAQJyAAibPUEgECBAgQIECAAAECBAgQIFCogACk0MLoFgECBAgQIECAAAECBAgQIBAnIACJs9QSAQIECBAgQIAAAQIECBAgUKiAAKTQwugWAQIECBAgQIAAAQIECBAgECcgAImz1BIBAgQIECBAgAABAgQIECBQqIAApNDC6BYBAgQIECBAgAABAgQIECAQJyAAibPUEgECBAgQIECAAAECBAgQIFCogACk0MLoFgECBAgQIECAAAECBAgQIBAnIACJs9QSAQIECBAgQIAAAQIECBAgUKiAAKTQwugWAQIECBAgQIAAAQIECBAgECcgAImz1BIBAgQIECBAgAABAgQIECBQqIAApNDC6BYBAgQIECBAgAABAgQIECAQJyAAibPUEgECBAgQIECAAAECBAgQIFCogACk0MLoFgECBAgQIECAAAECBAgQIBAnIACJs9QSAQIECBAgQIAAAQIECBAgUKiAAKTQwugWAQIECBAgQIAAAQIECBAgECcgAImz1BIBAgQIECBAgAABAgQIECBQqIAApNDC6BYBAgQIECBAgAABAgQIECAQJyAAibPUEgECBAgQIECAAAECBAgQIFCogACk0MLoFgECBAgQIECAAAECBAgQIBAnIACJs9QSAQIECBAgQIAAAQIECBAgUKiAAKTQwugWAQIECBAgQIAAAQIECBAgECcgAImz1BIBAgQIEHXysgAAACAASURBVCBAgAABAgQIECBQqIAApNDC6BYBAgQIECBAgAABAgQIECAQJyAAibPUEgECBAgQIECAAAECBAgQIFCogACk0MLoFgECBAgQIECAAAECBAgQIBAnIACJs9QSAQIECBAgQIAAAQIECBAgUKiAAKTQwugWAQIECBAgQIAAAQIECBAgECcgAImz1BIBAgQIECBAgAABAgQIECBQqIAApNDC6BYBAgQIECBAgAABAgQIECAQJyAAibPUEgECBAgQIECAAAECBAgQIFCogACk0MLoFgECBAgQIECAAAECBAgQIBAnIACJs9QSAQIECBAgQIAAAQIECBAgUKiAAKTQwugWAQIECBAgQIAAAQIECBAgECcgAImz1BIBAgQIECBAgAABAgQIECBQqIAApNDC6BYBAgQIECBAgAABAgQIECAQJyAAibPUEgECBAgQIECAAAECBAgQIFCogACk0MLoFgECBAgQIECAAAECBAgQIBAnIACJs9QSAQIECBAgQIAAAQIECBAgUKiAAKTQwugWAQIECBAgQIAAAQIECBAgECcgAImz1BIBAgQIECBAgAABAgQIECBQqIAApNDC6BYBAgQIECBAgAABAgQIECAQJyAAibPUEgECBAgQIECAAAECBAgQIFCogACk0MLoFgECBAgQIECAAAECBAgQIBAnIACJs9QSAQIECBAgQIAAAQIECBAgUKiAAKTQwugWAQIECBAgQIAAAQIECBAgECcgAImz1BIBAgQIECBAgAABAgQIECBQqIAApNDC6BYBAgQIECBAgAABAgQIECAQJyAAibPUEgECBAgQIECAAAECBAgQIFCogACk0MLoFgECBAgQIECAAAECBAgQIBAnIACJs9QSAQIECBAgQIAAAQIECBAgUKiAAKTQwugWAQIECBAgQIAAAQIECBAgECcgAImz1BIBAgQIECBAgAABAgQIECBQqIAApNDC6BYBAgQIECBAgAABAgQIECAQJyAAibPUEgECBAgQIECAAAECBAgQIFCogACk0MLoFgECBAgQIECAAAECBAgQIBAnIACJs9QSAQIECBAgQIAAAQIECBAgUKiAAKTQwugWAQIECBAgQIAAAQIECBAgECcgAImz1BIBAgQIECBAgAABAgQIECBQqIAApNDC6BYBAgQIECBAgAABAgQIECAQJyAAibPUEgECBAgQIECAAAECBAgQIFCogACk0MLoFgECBAgQIECAAAECBAgQIBAnIACJs9QSAQIECBAgQIAAAQIECBAgUKiAAKTQwugWAQIECBAgQIAAAQIECBAgECcgAImz1BIBAgQIECBAgAABAgQIECBQqIAApNDC6BYBAgQIECBAgAABAgQIECAQJyAAibPUEgECBAgQIECAAAECBAgQIFCogACk0MLoFgECBAgQIECAAAECBAgQIBAnIACJs9QSAQIECBAgQIAAAQIECBAgUKiAAKTQwugWAQIECBAgQIAAAQIECBAgECcgAImz1BIBAgQIECBAgAABAgQIECBQqIAApNDC6BYBAgQIECBAgAABAgQIECAQJyAAibPUEgECBAgQIECAAAECBAgQIFCogACk0MLoFgECBAgQIECAAAECBAgQIBAnIACJs9QSAQIECBAgQIAAAQIECBAgUKiAAKTQwugWAQIECBAgQIAAAQIECBAgECcgAImz1BIBAgQIECBAgAABAgQIECBQqIAApNDC6BYBAgQIECBAgAABAgQIECAQJyAAibPUEgECBAgQIECAAAECBAgQIFCogACk0MLoFgECBAgQIECAAAECBAgQIBAnIACJs9QSAQIECBAgQIAAAQIECBAgUKiAAKTQwugWAQIECBAgQIAAAQIECBAgECcgAImz1BIBAgQIECBAgAABAgQIECBQqIAApNDC6BYBAgQIECBAgAABAgQIECAQJyAAibPUEgECBAgQIECAAAECBAgQIFCogACk0MLoFgECBAgQIECAAAECBAgQIBAnIACJs9QSAQIECBAgQIAAAQIECBAgUKiAAKTQwugWAQIECBAgQIAAAQIECBAgECcgAImz1BIBAgQIECBAgAABAgQIECBQqIAApNDC6BYBAgQIECBAgAABAgQIECAQJyAAibPUEgECBAgQIECAAAECBAgQIFCogACk0MLoFgECBAgQIECAAAECBAgQIBAnIACJs9QSAQIECBAgQIAAAQIECBAgUKiAAKTQwugWAQIECBAgQIAAAQIECBAgECcgAImz1BIBAgQIECBAgAABAgQIECBQqIAApNDC6BYBAgQIECBAgAABAgQIECAQJyAAibPUEgECBAgQIECAAAECBAgQIFCogACk0MLoFgECBAgQIECAAAECBAgQIBAnIACJs9QSAQIECBAgQIAAAQIECBAgUKiAAKTQwugWAQIECBAgQIAAAQIECBAgECcgAImz1BIBAgQIECBAgAABAgQIECBQqIAApNDC6BYBAgQIECBAgAABAgQIECAQJyAAibPUEgECBAgQIECAAAECBAgQIFCogACk0MLoFgECBAgQIECAAAECBAgQIBAnIACJs9QSAQIECBAgQIAAAQIECBAgUKiAAKTQwugWAQIECBAgQIAAAQIECBAgECcgAImz1BIBAgQIECBAgAABAgQIECBQqIAApNDC6BYBAgQIECBAgAABAgQIECAQJyAAibPUEgECBAgQIECAAAECBAgQIFCogACk0MLoFgECBAgQIECAAAECBAgQIBAnIACJs9QSAQIECBAgQIAAAQIECBAgUKiAAKTQwugWAQIECBAgQIAAAQIECBAgECcgAImz1BIBAgQIECBAgAABAgQIECBQqIAApNDC6BYBAgQIECBAgAABAgQIECAQJyAAibPUEgECBAgQIECAAAECBAgQIFCogACk0MLoFgECBAgQIECAAAECBAgQIBAnIACJs9QSAQIECBAgQIAAAQIECBAgUKiAAKTQwugWAQIECBAgQIAAAQIECBAgECcgAImz1BIBAgQIECBAgAABAgQIECBQqIAApNDC6BYBAgQIECBAgAABAgQIECAQJyAAibPUEgECBAgQIECAAAECBAgQIFCogACk0MLoFgECBAgQIECAAAECBAgQIBAnIACJs9QSAQIECBAgQIAAAQIECBAgUKiAAKTQwugWAQIECBAgQIAAAQIECBAgECcgAImz1BIBAgQIECBAgAABAgQIECBQqIAApNDC6BYBAgQIECBAgAABAgQIECAQJyAAibPUEgECBAgQIECAAAECBAgQIFCogACk0MLoFgECBAgQIECAAAECBAgQIBAnIACJs9QSAQIECBAgQIAAAQIECBAgUKiAAKTQwugWAQIECBAgQIAAAQIECBAgECcgAImz1BIBAgQIECBAgAABAgQIECBQqIAApNDC6BYBAgQIECBAgAABAgQIECAQJyAAibPUEgECBAgQIECAAAECBAgQIFCogACk0MLoFgECBAgQIECAAAECBAgQIBAnIACJs9QSAQIECBAgQIAAAQIECBAgUKiAAKTQwugWAQIECBAgQIAAAQIECBAgECcgAImz1BIBAgQIECBAgAABAgQIECBQqIAApNDC6BYBAgQIECBAgAABAgQIECAQJyAAibPUEgECBAgQIECAAAECBAgQIFCogACk0MLoFgECBAgQIECAAAECBAgQIBAnIACJs9QSAQIECBAgQIAAAQIECBAgUKiAAKTQwugWAQIECBAgQIAAAQIECBAgECcgAImz1BIBAgQIECBAgAABAgQIECBQqIAApNDC6BYBAgQIECBAgAABAgQIECAQJyAAibPUEgECBAgQIECAAAECBAgQIFCogACk0MLoFgECBAgQIECAAAECBAgQIBAnIACJs9QSAQIECBAgQIAAAQIECBAgUKiAAKTQwugWAQIECBAgQIAAAQIECBAgECcgAImz1BIBAgQIECBAgAABAgQIECBQqIAApNDC6BYBAgQIECBAgAABAgQIECAQJyAAibPUEgECBAgQIECAAAECBAgQIFCogACk0MLoFgECBAgQIECAAAECBAgQIBAnIACJs9QSAQIECBAgQIAAAQIECBAgUKiAAKTQwugWAQIECBAgQIAAAQIECBAgECcgAImz1BIBAgQIECBAgAABAgQIECBQqIAApNDC6BYBAgQIECBAgAABAgQIECAQJyAAibPUEgECBAgQIECAAAECBAgQIFCogACk0MLoFgECBAgQIECAAAECBAgQIBAnIACJs9QSAQIECBAgQIAAAQIECBAgUKiAAKTQwugWAQIECBAgQIAAAQIECBAgECcgAImz1BIBAgQIECBAgAABAgQIECBQqIAApNDC6BYBAgQIECBAgAABAgQIECAQJyAAibPUEgECBAgQIECAAAECBAgQIFCogACk0MLoFgECBAgQIECAAAECBAgQIBAnIACJs9QSAQIECBAgQIAAAQIECBAgUKiAAKTQwugWAQIECBDIAn/6p3+avva1r8HYYYGbb745veENb9jhI9B1AgQIECCwHwICkP2oo6MgQIAAgT0VuO2229Itt9yS8k20n90UePbZZ9Nzzz2Xbr311t08AL0mQIAAAQJ7IiAA2ZNCOgwCBAgQ2E+BHIA89dRTbp53uLxquMPF03UCBAgQ2CsBAcheldPBECBAgMC+Cbh53v2KquHu19ARECBAgMB+CAhA9qOOjoIAAQIE9lTAzfPuF1YNd7+GjoAAAQIE9kNAALIfdXQUBAgQILCnAm6ed7+warj7NXQEBAgQILAfAgKQ/aijo9igwLe//e30u7/7uxvco10NBN74xjemV7ziFUAIHJSAm+fdL7ca7n4NHUG3wOc///n05S9/Gc+GBV760pemn/zJn9zwXu2OwH4ICED2o46OYoMCf/mXf5l+6Zd+aYN7tKuBwNve9rb0Yz/2Y0AIHJSAm+fdL7ca7n4NHUG3wG//9m+nHIL42azA93//96f3vOc9m92pvRHYEwEByJ4U0mFsTkAAsjnr9p4EINuzt+ftCcTfPD+fPn36ZLr30Wfqg7rr1MPp8YsPpldNHOKn0+mbnkz33biY7tne4e/FnuNruBcsDmIPBAQg2ymiAGQ77va6HwICkP2oo6PYoIAAZIPYrV0JQLZnb8/bE4i+ef706RPpfDpXhR73VKFHFYY8UoUhT9yfrl9uhyACkKiqR9cwql/aIbCqgABkVcHltheALOdmKwJZQADie0DgiALtAORzn/tceuaZ3pNUP5sV+MhHPpIeeOCBze7U3ghsWCD05vn5R9KJkyk93go7Pn36pvTkfTdSlYlUo0NO1KND7jp1V0qP3pnuPHUlPVr/96V0OX+g+nn+kdPp5JlHU/Wn6dTDj6eLD/bHj3z6dDpx7Xi684kzKQ8wuevh6+ly/rvqz2+699GJ/z51Ke/z+fTIiWPpTOM02vvz1n4uVfu5Z7Sfm568L93o9yf3+drZy+nB69V+hn+eA5x7U5rX1qCeuY9Ttl215KE1XLUzticQKNAMQP76r/86fexjH0t/+7d/G7gHTS0icOutt6YXXnhhkY/6DIGDFxCAHPxXAMBRBdoByO/93u+lixcvprvvvvuoTfn8CgK/+Iu/WG89+P9XaMqmBIoWCL15rgOKs71Qovkz+PPbL6QT54/XAUkOLY5VocWpS9frMCKHFFfPVcFEqoKC6jP1iJHnq5Dh2Pl0/HoVPuQm66DjSno4/3eq/u5k9XeP94OJ81fSXXeeq0OU5x85kY5ViccoALmQbr/ce9Um/92F2y8P93Pp8QerP/90eqRqq+rYaD9zApCxffT73NnWwKERgIz3b/WvR2gNV++OFgiECTQDkK9+9avpxRdfTM8++2xY+xpaTGBwQ7fYp32KwGELCEAOu/6OfgkBAcgSaGvYRACyBlRNFikQefOcb+xPpsc7A5A8+uH68fO98KEe6NF6BaYfEFxK9w5Hi+RPjbU5Noqi8XdVsFJNJ5JOPZqqOUXOpmsnLqSrd9b/0R8BMhmA3PfkaFTKvP1MjgBJ9fwl/R2mmW1NBCDj2/YHmaz03Yis4UodsTGBYAEBSDDoks0JQJaEs9lBCghADrLsDnoVAQHIKnpx2wpA4iy1VLZA6M3znBEg564ea4QbiwUgedTHcFRJu/3GyJIcsFyqZh+5dvZcunryWjp+55l0dU4AUg1AGftpv1Iz+su7eqNO+q/A5CAnBz2D48kByNS2WgFIe1sBSNn/PvRuuwICkO36D/YuACmjDnqxGwICkN2ok14WJCAAKaMYApAy6qAX6xcIDUDmzAFy9lr/9ZMpI0By0DEekhxlBEhvhMnJJyqz+0fhRG8OkPkjQMakWyNNxkeADAZ+XMxDOepApz0CpLNqdZuT2wpA1v8dt4fdFRCAlFE7AUgZddCL3RAQgOxGnfSyIAEBSBnFEIAcvQ71xJVPXKk3vLO6AR1OXHn0pmyxQYHQAKTq98xVYBoBScgcIIP5QQaTk569lk4cO5PurCYmHYUS3QHI2Fwj1Wo1wzlIcjgzKwBpTLY6nNy1OW9Ju61BLVsTtTYnhl213NE1XLU/ticQJSAAiZJcrR0ByGp+tj4sAQHIYdXb0QYICEACEAOaEIAcEXHsyX++mayXAulNKOln6wLf/OY3080339zZj/ib52rp29PV0rd5mZbq565TD1dL4o6WwB1fBab6wKmUnjnCKjD1KIorj1arwDRWiBkGFr35Ne67MRidcT0dP1+tAJMeHi7DO5wEdWwVmNzP0So0swOQvPBLb0LVZogxWrmm1dZYANK97apfkPgartoj2xOIERCAxDiu2ooAZFVB2x+SgADkkKrtWEMEBCAhjCs3IgA5GmF78svmTWZuabDqxdgNcQ5NLtxer9pR3xRfuT9duv+JdG9/vdLRjfNoGdPhTWrrCX2vt4KXaVW755570g//8A+nn//5n0+33HLL2Me2d/PcmgNkka9cZ90X2XC/P7O9Gu63q6PbvoAAZPs1yD0QgJRRB73YDQEByG7USS8LEhCAlFEMAcgKdWgvXToxOqS/3OmxQQDSf2p//Xg6Xw8cyaMFRq8knK1eLzhWL0l6bDSyZPDKw9gECgKQaVV705velJ5++ul6FMi73/3usSBkezfPApAV/pVtN8Tqmusl/9mxJ9L9gyWLow5OOwcn0ByxJgApo/wCkDLqoBe7ISAA2Y066WVBAgKQMoohAFmuDsORHneNXjlotzR8baAfgDxeTVx57Oq5KuCoZ8Yc/kzOkdAIOAQgRyrQIAAZbNQMQt74xjemp556Kt16661HanP1DwtAVjfstbDxEGsiABmM0uqvluPVt6jSHmQ73/d931eHtDms/cQnPpE+//nP1w5f/epX04svvpieffbZg3TZ5kELQLapb9+7JiAA2bWK6e/WBQQgWy9B3YEHHnggPf7442V0Zgd6cePGjUYv8xwQx9L549fT5XoSkOrmqJoT4kx/Toj8wVPVJJUXcwBSTVj5TBrcNE353HDFkHvTo3edSpcuV/Mv9CeU7O10MBdEGo4QeekfPpbe9a537YDcdrv4spe9LH3Xd31Xunz58hYCkO0e+z7tfesBSF6O+Mnj6f4r1RI89dw/Ha+t1SNE8r/3+gxQz6NyLE+cfObR+hxw6uH+xMlj/7Z7/77zEsRv/dT8z47mcRntf1Dn+pwzNu9Ltc9L1T7vqc5RM1f9yaPPeuHscDWgapPO1/pSFeqdqM5TvYMc9n1sLqQxh96n6r5VI91OXDue7nziTL39cEnmfAbtcqr701x+eRQ+tV9JrI/v/JV0153nxl45vH7uan90XT6+aQFzDirvzZPXVFYLHF/AP6x885B/8ut6Obz9nu/5nvSd3/mdApAA22WbEIAsK2e7QxQQgBxi1R3zSgICkJX4wjY2AuRolPWcH6mx8kvjhqK+GK9GeDxe3UTkOGRiBMh9T6aT54+nc9X8H+e7PtcYGJJvQJ6873J9s3BT/VpMvqOpLsqP5Ykvz6ZrJl/tLFyZI0CO9h3z6ekC2w1A8k1x9e/v8ujf31urEVoTr62l0Zw/9ZHUN+XHe5PTtl+bq2/6G0smT/vs2Eiw5itws1f+ufT4g9Uktp9Oj5w83wtsWiPKxpc97ghA8rF0va5XLfN8sjoP9oLf8cBkWL3G3Ee9z/SWUq7PafdeqcOeB3OQUvXt+KBvU5xGo+Rar/+1RujUnzv+cLpyNc+5NJoouA6SB+fRKQHIIOjJIU1exnru8QX8Qx0EIIOmcvjx2te+tg5E/uIv/sIIkADjozYhADmqmM8fsoAA5JCr79iXEhCALMUWvpEA5IikrQvu5hPIsaeR9Y1O/2nicA6QPAnqTen8lbtSqpbPrW8eGp/Ly5kORpPUn8sjS26/IAA5QonKnAPkCAfgozMFthmAVMOu+jfFoxFYoxEPjRvzVgDSfsVt1kTKUz/bPA+MTYLcHYCMlkbucQ73OdZOI7iYFoy0XvEZ9K8XEFSjLB6cHDGyUAAyDCNGfTt39VgvIOkHwU2n0YiU9vxHzf/uv2qW51iqJp0ee+VwbgDSC0vSqUdTlTD3A5DJ43vyf3xTfXhf/OIX09e//vW1/Wv93u/93vSKV7xi+ErM2nak4QkBAYgvBYHFBQQgi1v5JIFaQABSxhdBAHL0OtTDtJ+40tuwGmo9GPFR3U4Mh4XnlV3OHa9GeuSnpG/91HAVmOpOpHqiWg2frwbDP5OHf7c+d/pkb1h4NS6898S4NUy+N1y86wbs6Mexj1uUuQrMPkpv55h+8Ad/MF24cGFihZ9ZvcnzKOTJJpf5+cX/4eX9ERC3pwv16I+8LHD7Jrz36sTwtbVpIx8GI7zyazTXzg5HTzRHgEzMBzT4bA4u7q1uzgc/w7mHpgcgzY/nzepzR7udwWt5OQAZ22De63rt1/g65kSZMQKkefx5hEz+73YAMvjz8fPd5ATQE+HO2WutVw6rg58TgFyv5mfKIz5Gfeg+vv/yz5+uK/Ca17wm5dfqVv1pjwDJwUeeqyiPBDEHyKq6y20vAFnOzVaHKSAAOcy6O+oVBAQgK+AFbioACcTU1NYFmqsqtDuz8dEDW9fYvw68/OUvr5c5zpPbLvrzhje8ob6hXOZnEIDcf+cT6Wp+Ja0OMbpXYRq+ttYY8ZU/HT8CpDdyo35F7p7FRoAMj/2Ic4C89VNTXuurHHIfzh/vjWRrzhky3NesV2CONALkej06475qLpXJ8CmXI79yVA2qS2eqGvXnXMojQPqvHNarbc0MQAYDP+p3ZoajUOYe3zJfqNY2gwAkBypvfvObh39rEtQA3CWbEIAsCWezgxQQgBxk2R30KgICkFX04rYVgMRZaqlsAQFI2fVZpHcbr+FgIs+x1Z5GAcjtFzpeW2uO+OolIMFzgDTDhzwa7EK6vR6Z0phPJM+zMZhPo7HU9ticQnXXTqRrZ6fPDVIHIIO5Ptqv9Q3nBllxDpBj1RwgeT6QPAqlaw6Q6s9PVIHJ5Tp96gqf+iNw+hPO3tMIXsbmHZk2B0g18mUwEevYvE3zjm+RL+ycz+Tv80MPPVRPRm4Z3ADQgCYEIAGImjgYAQHIwZTagUYJCECiJFdrRwCymp+td0dgYzfP7deWTl3q3by1nr735FpzRwxXD+n9beeKHoNVRPo3tmeGK3GMVtkYTfjYXtGjscLIkVYGaa6Q0VqtY9DOBr4KG6vh4FjqAOSJdH++QR/OhzFes4nX1lojH+oqT1ndpPd3jUlQp322vWJMFchcuvzWajLkY9W4h9FS3M22RvvMr9p1fwfnBSAPvqr7tb726ypHHwFSfVevPFq97tdYFafz2PPoj+r1ovZ3q7X8eL1KTLrUnyy6MQntYM6mvApM+52gyuRGNUqkt/BLL0AaBCDtOVQ6jy/4+y4ACQZdsjkByJJwNjtIAQHIQZbdQa8iIABZRS9uWwFInKWWyhbY2M3z3AkXG8v9tAOQauh+70l3a9WMztUxZqwA0njFYOwmt2pnmZVBmitk1KMIutppTZi5jm/Dxmq4js5rsyfQGQROw8kBzLV0Nr/GMvzI5J9NzJ0y17pq43RKFwczrs79/Po/IABZv/EiexCALKLkMwR6AgIQ3wQCRxQQgBwRbE0fF4CsCVazxQls7OY5OACZuqJHPRnulNcfOgKQ/LpG5yobc1cGGV8hY3p/1p+AbKyGxX1796hD4QFIf/WX/iiOxaQEIIs5Hd6nBCCHV3NHvLyAAGR5O1seqIAApIzCC0DKqINerF9gYzfPHa8rTK7oMxj631jRZ8ryqe3AYXx1jCkBSMeKHjkAOfLKIFWQ0l4hI/ens53ROyJrK+bGari2I9Dw0UaAzPHq/1sbzOGxuK4AZHGrw/qkAOSw6u1oVxMQgKzmZ+sDFBCAlFF0AUgZddCL9Qts7Oa5Y6WNesWO/OrIYGRGPaFkXtnibDWPQz3bYnpwwQBkuOzniiNAhuIzVwaZXCFjIpBZf+mGe9hYDTd4THZFIAt4BaaM74EApIw66MVuCAhAdqNOelmQgACkjGIIQMqog16sX2BjN88dgUK9XGjzVZMjBCCDOTfqUST1dv1VM1613BwgdTuLrgzStULGtBVGmlObrKmcG6vhmvqvWQLTBAQgZXw3BCBl1EEvdkNAALIbddLLggQEIGUUQwBSRh30Yv0CG7t57lyx48F0T3t1mIevpyqLqObxmD0CJM/TOLmKSN5uygogzZEmFWtzBYsjrwzSsULGeH8aK4ysv4RpYzXcwLHYBYGmgACkjO+DAKSMOujFbggIQHajTnpZkIAApIxiCEDKqINerF/AzfP6jde9BzVct7D2tyUgANmW/Ph+BSBl1EEvdkNAALIbddLLggRWDkCefySdOHYmPdM4prtOXUqPV48nZ61F0HwCWj27TKcuVe/mb2DodkH0Y10RgJRaGf2KFnDzHC26+fbUcPPmeY+zxQAAIABJREFU9rgZgW0FIPU10RNX6oO88/7H08UNTGa8GdHl9iIAWc7NVocpIAA5zLo76hUEQgKQC7eny8P04vlqqPexsWUeJ7qXQ5Nqm3khyQqHtXObCkB2rmQ6vKSAm+cl4QraTA0LKoauhApsJQDJ10T1G3iDeYH6r+Otf0XrULvIxgQgkZra2ncBAci+V9jxhQvEByBVF6t37E9cO1u9V19N8ffIiXTsTG98yF2nHq5Cj/yy/el0IR1P6erV6k+rJx7VxITNpx2T79lXVwHt9/mrUSMPX7+c3vqpyfbzNcOnTzeXiOx9Nj9Q6erPq6a2XT2ROfNoNbolj1Cp+nhPbjlPeFi9898Y8nLq0o3e6JV+sDMKgxYvlwBkcSuf3G0BN8+7Xb/cezXc/Ro6gm6BbQQgoxWleolH/u8Lt49GxXZetzSuN/L8QvdeuT9duv+JdG/remsw0XL+4zw6N1+f5OujJ+/rX7fU10sn0rWz1TXS9cYKWama6PmmevKhdPFY76FVb9vevnqTOK/vRwCyPlst75+AAGT/auqI1iwQH4D0AoKr5/q/NMeeavT+/Oy1KrS4ei7d6KUGo8kHe8lFuun88d4v17GVFnoQYxcGE09N+vutmh39gm+0n5e37OjPYPDKWNv9flx6vJo0sboQeOTk+d4SmdNWfBCArPmbqvl9EXDzvPuVVMPdr6EjKCcAGetJ+7pn2nXOMJRIVVBRLeV9/Xg633W9VU3GfKxe9vvY8Frr9gvzA5BB6FI/4Gnv68bF6rpovT8CkPX6an2/BAQg+1VPR7MBgZAApGMOkK5REINQIgcgJ1O1HGX/Hdfm04/2k4l5T0aaRM1tRysutAKWxgZd+xo8dZnej7zqw4V0++XeBcBEIDP2OtDiBTQCZHErn9xtATfPu12/3Hs13P0aOoLyApDhSI+7Hp46wmJ4bdIPJR4/fr7xQGl0TO1rmObDpvkBSC9USaceTSmPFJmzr3V8lwQg61DV5r4KCED2tbKOa20CIQHI1Jv+Knw4fTKdeXT0vkh+mpADkObwzuYrMxO/tBuv02SE8aGh3e1fvKcZerT+747+dI0AGX+Fpsd/13C5zBkBSCMMGrzys8gwUQHI2r7iGi5MwM1zYQVZojtquASaTXZCYBuvwIzD9OZRO388L8/df+2267olhxL19cbgFd9p10O59d7rLI/edSpdqh7eHMuvJlejcK/Xk9U3rpH6r8Bcr0KV/JDq3NX+fG4T+1p/KQUg6ze2h/0REIDsTy0dyYYE1hmA1KM3ql+yg8lOo0eATGv/4j35l301JLQepjn65Z7nC+nqz7QApPmO7Kgcub1FRoAsMBlso8YCkA194e1m6wJunrdegpU7oIYrE2qgUIFtBCD1g50qcBjOhZZfwa1fW6muYKZcRw1HZdz3ZDpZvTZ8rpr/43zH9VZzdb08MvbJ+/LcIs2w5K4qQknp/jxPWh2ADAZ+XMzDQHpzhQxGgPT31Zusdb0/ApD1+mp9vwQEIPtVT0ezAYG1ByCDV13q91onJ9RaZQ6Qsddjmu1X77yeqC4eeq/htAKQrv70X2btmgOkN9FXY16TenSJAGQDX0272FMBN8+7X1g13P0aOoJugW0EIPUE6sP5O3ojXQevCU+9zhmbmPSmdP5KFWNUy+fWo0Ya10P3PVn9XX80SX4INRpZMjr+sUlQ7320P9r1VaO51Fr76n44FPuNEoDEemptvwUEIPtdX0e3BoF1BiD1sMsT1bDLevbxh9O549UTin4A0VvzvlrvPq8C01rzvnMVmP6xj78C09X+/enOM2dS9ebq+E/9Tu3t6cKU/uQPT868PlgFZjB7ep5ErFoBJo3ez52YA8QrMGv4lmpynwRKunmevlpUYwWoh/tPZvNNyvDfdzWUvBphdiyfxwYrRQ0+11pVarDyQu8c0/35E9eOpzufqM5b+VxZv2o3Wg2ivYrWup+8LvJdK6mGi/TXZwgsKrCVAGRwbniiuh7KP3eORs5OvY5666eGK7P0ApTqgqp6IeaZ9vVW9bnTJ3vnlurk0jm3yHgAkhd+6c1x1p5vpH6o1AprFnU96ucEIEcV8/lDFhCAHHL1HftSAisHIEvtdZ0b5VDkWjo7NkSz68/W2Yejt+0VmKOb2WI3BUq6ee5cLSoPA+9aiSqvItWc72jailVjS0m23q/vajd//t4rvaW6c2hcrTh1PK84NWfVqm1Wv6QabtPBvvdPYFsByP5JrnZEApDV/Gx9WAICkMOqt6MNEBCABCAGNCEACUDUxE4IlHTz3LVaVHuFhOEQ9OYT10p66kpRt18Yvr8/a+WFYbtjnx8f/t4s6OSqDtsrd0k13J6CPe+jgACkjKoKQMqog17shoAAZDfqpJcFCexfAFIQ7hG6IgA5AtY2P5qH/37qrdUrCtfT6dMpXWzOMLfNfu3Qvsu5ee5eLaodgAxXqZoTgAw/lwON6j364U9/2Pn1wYSC/TmHmp8/ce3s8LWX0apY1ZLbM1at2mbJy6nhNhUK2rfzUlgxBCBhlCs1JABZic/GByYgADmwgjvc1QUEIKsbRrRQXgCSV7E5me7tL2E8fUnf5oo7ERKlt9GbEPfMM3elU5fybPql97e8/pVz89y9WlTsCJA8UqS38kKejLA5eeC8ESCPV9Mgzlq1apuVLaeG61fozVfVm5vhztZ8Vevf+6J7cF5aVGre5wQg84Q28/cCkM0428t+CAhA9qOOjmKDAgKQDWLP2NW0AORrX/ta+uVf/uX0+te/Pr3jHe/YWGfzTdv5NJiIrQpDHqnCkCfu75hA7dACkI2VYG93VMzNczWHR9dqUfVSkGFzgPQCkPPHq9UZ8siQReYAOVbNAVLNB1Iv2z1j1aptfkGm1fDpp59OH/jAB9JTTz21ze7F7XtswsfmiKG4XWipLAEBSBn1EICUUQe92A0BAchu1EkvCxIQgJRRjHYAMgg+fuM3fiN985vfTB/5yEfSAw88sJnOTpnlvTkHQb6py6ND7jpVLb336J3pzlNX0qP1f1/qLz88ZcWLfAT5xrNr1Yv+6hnDVTD6/33q0o1qpMXgCeeIoPfnrf1cqlbsuKe/TkbevloO+UZ/mMbYTPcL/HlvT61JLIfb5eCnv6xzaxRI6SuLbOZLNH0vZQQgvfp1rxb1YH73ZHJ1l/zvojkJav52LLAKTF554VI1KXO9KPe0zz+Z0qkrj1YrNVQjiwarycxYRau0Gg6Cj/z/558bN25su4sh+x9bgrSu34l04fbRyK/83xOr9DS+J/V58sr96dL9T6R7z+RlOHoroj1+cbS8ev7j4Xlz2jkrr2za9d3pn09H57lp56Up589qyfhp2w7O8VXn0qXHq1VB8mm1tcJR1fPe5L0lLE0UUvGUBCBBkCs2IwBZEdDmByUgADmocjvYCAEBSITi6m0MApB3v/vd9YiPQfAxaHmjAUgdUDTmJBh0YvDn1ZPsE9WT7Merm7p8QXysmu/g1KXrdRiRXw+5eq4KJvKFddfT7uFFdMeqF/WT9yvprmoJwLzc3uDmYhSAXEi3X+4tzze8Eenv59Lj+Qbz0+mRagWNqmO9C/I1BiDjfRuvf9ErixRwo1JMAFLKalGt7+nqZ5P1tzCo4Ve+8pV6xMcg+BjseV8CkDHJ56twoT86pz6/TIwO6Z/7jg2CslSFbE+m+64fT+dP5tPSKPTI58iz1bnrWB2o5uXV6w+kevTRtHB21vm0v83081IOQKacP7u27Qcj1/NJPZ/jG33KJu0gaP3fuM3tQQCyOetZexKAlFEHvdgNAQHIbtRJLwsSEICUUYwcgPzhH/5hunz5cj3iY1s/d999d/rf7vvWaOh9syP9G7Xrx883noK2XoHpf+ZSurd7voN859C64RufC6F6El49lr/vxtl0rbpgv3pn/R/9ESCTF/BT51Xo2E/cCJDejU2/oxPzgJS6ssh/95e/lP7kg3dv66s13O93fMd3pC996Uvpjjvu2GJfClouewcDkFe84hXpla98ZfrsZz+7xRqud9f5XDh4lWc40qM/oW1XjjgMPvsByOPVefLY1XPDEWijHHl8Lpjpo8x6r09dO3s5TZ2XZuw8N+u8NC8AGd+2fV5tSw8CkGu/8qaJ8Gu9Vdl86z/wAz+Q/vzP/3zzOz7wPQpADvwL4PCPJCAAORKXDxNISQBSxrdgMALk1ltvrZ+o5ierzZ+SRoCcu3qsEW4sFoCMVrboBSCdq170lwO9VM0+cu3suXT15LV0/M4z6eqcAKS54EY2a79CM3LsD9fOT1nHNur688GrCHlUy/jT2RwA5bkZxh0Geyl9ZZHtDwEpYwRIGf/u617sYACSa/jEE0+kj33sYxOj1fIh7eUIkOp1uE+fPlbN53K9v2JP9W+9a5WeHIAcO5OqFwL7r4dM+Vz96lz/Vaz8mkke3TblFZOpKxM1ApD556XpI0Da2973ZC94mfZqixEgBZ0/9rQrApA9LazDWouAAGQtrBrdZwEBSBnVbc8B8thjj40FIRsNQObMAXL2WvM9+MkAJIcb7XBg7F36mSNA7kv1xfgTVV2qFRdG7XQ/wZz5pHKVV2Dq4e7V8PV6JEozABkM/LiYH5mOjXLpfZPKXlnkcgEv6wtAyjjnrNKLZg3b8xXtUwBS3+hXYefFwb+bxjmlPqdVIzwer14T6b1x1z8fDEaA3PdkOlm9tnKumv/jfNfnGnMHDVYKql8d7HgFZv4IkHnnpVkjQCa3XXQEyD6uguUVmFXODHHbCkDiLLW0/wICkP2vsSMMFhCABIMu2dy0VWAGQchDDz20uUlQ64v5GavANAKSkDlABu/VD95/P3utfoJ6ZzXJ6ehCfMYF/ODd+HrC0v57+PnmYh0BSDVyZDDCpDkp7LDsha8sUkD+kQQgS54kCtqsq4bNIOQb3/hGQb1doSutMLgZ5I6FunVg2p8UeTgHSDUrURWKnL9STRRdhbl1+Nj4XD63DUaT1J/LI0v6o+A6J26eOafSnPNSfW6cMgKk65xmDpD6S/PVr341vfjii+nZZ59d4Utk02UEBCDLqNnmUAUEIIdaece9tIAAZGm60A2nBSCDneSbi1tuuSV0n7Mby8O9q6Vvq5Vd8s9o5YLeVuOrwFR/cCqlZ46wCkw9hUZ71YthYNGfPPDGYJTF9XT8/LF0Jj08XIa3OQR7tDpCYzWFXiePvgpM49WYXtDRegWmvsfpTcQ6GYDswsoiG/wKTdmVAGT7NVi1B7NquPlz1apHM+dMmFdfeeJK70PVBM2DER/1aK8T1UpC9SouD6dzx6uRHnnZ4rd+arRaUB2g5OFsz6RnOj53+uSZevu8UtD1PEnqsqvAzDwv9VeA6Tp/5qCjc9vG+b+5Ckyfyisw6/3OaT0lAYhvAYHFBQQgi1v5JIFaQABSxhdhXgBSRi+7etF6BWaRju7gnAeLHFbvhuhaOluv9jD46fqzxVpb6VMFGwtAVqpsERurYRFl0Ik1CHgFZg2oSzQpAFkCzSYHKyAAOdjSO/BlBQQgy8rFbicAifXcTmsCkEXc3TwvolT2Z9Sw7Pro3fICApDl7SK3FIBEampr3wUEIPteYccXLiAACSddqkEByFJsNpomUPgIkPw6180336x+OyqQ50R47rnnUl61yg+BfRIQgJRRTQFIGXXQi90QEIDsRp30siABAUgZxdjdAKQMP73YHYE8euBDH/rQhue02R2fXejpO9/5zvS5z31OALILxdLHIwkIQI7EtbYPC0DWRqvhPRQQgOxhUR3SegUEIOv1XbR1AciiUj636wJen9j1CiYr+ex+CR3BFAEBSBlfDQFIGXXQi90QEIDsRp30siABAUgZxRCAlFEHvVi/gABk/cbr3oMarltY+9sSEIBsS358vwKQMuqgF7shIADZjTrpZUECApAyiiEAKaMOerF+ATfP6zde9x7UcN3C2t+WgABkW/ICkDLk9WIXBQQgu1g1fd6qgABkq/zDnQtAyqiDXqxfwM3z+o3XvQc1XLew9rclIADZlrwApAx5vdhFAQHILlZNn7cq8I1vfCPlGf1f8pKX1P14z3veky5cuJDuvvvurfbr0HYuADm0ih/u8bp53v3aq+Hu19ARdAt86UtfSl//+tfrv/zCF76Qfud3fif9wR/8Aa4NC3gFZsPgdrfTAgKQnS6fzpcg8KY3vSk99NBDApANF0MAsmFwu9uagJvnrdGH7VgNwyg1VLDA008/nT7wgQ+kp556quBe7mfXBCD7WVdHtR4BAch6XLV6QAICkO0UWwCyHXd73byAm+fNm0fvUQ2jRbVXooAAZHtVEYBsz96ed09AALJ7NdPjwgRyAHLrrbemH/qhHyqsZ/vdnc9+9rPpx3/8x9MgCNnvo3V0hyzg5nn3q6+Gu19DRzBfIAcg73rXu9LJkyfnf9gnQgXyyJsbN26EtqkxAvsqIADZ18o6ro0JPPnkk+mLX/zixvZnRyOB++67L73mNa9BQmCvBdw873551XD3a+gI5gvkuUAefvjh+R/0iXCBl73sZenMmTPh7WqQwD4KCED2saqOiQABAgT2RsDN8+6XUg13v4aOgAABAgT2Q0AAsh91dBQECBAgsKcCbp53v7BquPs1dAQECBAgsB8CApD9qKOjIECAAIE9FXDzvPuFVcPdr6EjIECAAIH9EBCA7EcdHQUBAgQI7KmAm+fdL6wa7n4NHQEBAgQI7IeAAGQ/6ugoCBAgQGBPBdw8735h1XD3a+gICBAgQGA/BAQg+1FHR0GAAAECeyrg5nn3C6uGu19DR0CAAAEC+yEgANmPOjoKAgQIENhTATfPu19YNdz9GjoCAgQIENgPAQHIftTRURAgQIDAngq4ed79wqrh7tfQERAgQIDAfggIQPajjo6CAAECBPZU4Ed+5EfSF7/4xT09usM4rJtvvjm98MIL6ZZbbjmMA3aUBAgQIECgUAEBSKGF0S0CBAgQIECAAAECBAgQIEAgTkAAEmepJQIECBAgQIAAAQIECBAgQKBQAQFIoYXRLQIECBAgQIAAAQIECBAgQCBOQAASZ6klAgQIECBAgAABAgQIECBAoFABAUihhdEtAgQIECBAgAABAgQIECBAIE5AABJnqSUCBAgQIECAAAECBAgQIECgUAEBSKGF0S0CBAgQIECAAAECBAgQIEAgTkAAEmepJQIECBAgQIAAAQIECBAgQKBQAQFIoYXRLQIECBAgQIAAAQIECBAgQCBOQAASZ6klAgQIECBAgAABAgQIECBAoFABAUihhdEtAgQIECBAgAABAgQIECBAIE5AABJnqSUCBAgQIECAAAECBAgQIECgUAEBSKGF0S0CBAgQIECAAAECBAgQIEAgTkAAEmepJQIECBAgQIAAAQIECBAgQKBQAQFIoYXRLQIECBAgQIAAAQIECBAgQCBOQAASZ6klAgQIECBAgAABAgQIECBAoFABAUihhdEtAgQIECBAgAABAgQIECBAIE5AABJnqSUCBAgQIECAAAECBAgQIECgUAEBSKGF0S0CBAgQIECAAAECBAgQIEAgTkAAEmepJQIECBAgQIAAAQIECBAgQKBQAQFIoYXRLQIECBAgQIAAAQIECBAgQCBOQAASZ6klAgQIECBAgAABAgQIECBAoFABAUihhdEtAgQIECBAgAABAgQIECBAIE5AABJnqSUCBAgQIECAAAECBAgQIECgUAEBSKGF0S0CBAgQIECAAAECBAgQIEAgTkAAEmepJQIECBAgQIAAAQIECBAgQKBQAQFIoYXRLQIECBAgQIAAAQIECBAgQCBOQAASZ6klAgQIECBAgAABAgQIECBAoFABAUihhdEtAgQIECBAgAABAgQIECBAIE5AABJnqSUCBAgQIECAAAECBAgQIECgUAEBSKGF0S0CBAgQIECAAAECBAgQIEAgTkAAEmepJQIECBAgQIAAAQIECBAgQKBQAQFIoYXRLQIECBAgQIAAAQIECBAgQCBOQAASZ6klAgQIECBAgAABAgQIECBAoFABAUihhdEtAgQIECBAgAABAgQIECBAIE5AABJnqSUCBAgQIECAAAECBAgQIECgUAEBSKGF0S0CBAgQIECAAAECBAgQIEAgTkAAEmepJQIECBAgQIAAAQIECBAgQKBQAQFIoYXRLQIECBAgQIAAAQIECBAgQCBOQAASZ6klAgQIECBAgAABAgQIECBAoFABAUihhdEtAgQIECBAgAABAgQIECBAIE5AABJnqSUCBAgQIECAAAECBAgQIECgUAEBSKGF0S0CBAgQIECAAAECBAgQIEAgTkAAEmepJQIECBAgQIAAAQIECBAgQKBQAQFIoYXRLQIECBAgQIAAAQIECBAgQCBOQAASZ6klAgQIECBAgAABAgQIECBAoFABAUihhdEtAgQIECBAgAABAgQIECBAIE5AABJnqSUCBAgQIECAAAECBAgQIECgUAEBSKGF0S0CBAgQIECAAAECBAgQIEAgTkAAEmepJQIECBAgQIAAAQIECBAgQKBQAQFIoYXRLQIECBAgQIAAAQIECBAgQCBOQAASZ6klAgQIECBAgAABAgQIECBAoFABAUihhdEtAgQIECBAgAABAgQIECBAIE5AABJnqSUCBAgQIECAAAECBAgQIECgUAEBSKGF0S0CBAgQIECAAAECBAgQIEAgTkAAEmepJQIECBAgQIAAAQIECBAgQKBQAQFIoYXRLQIECBAgQIAAAQIECBAgQCBOQAASZ6klAgQIECBAgAABAgQIECBAoFABAUihhdEtAgQIECBAgAABAgQIECBAIE5AABJnqSUCBAgQIECAAAECBAgQIECgUAEBSKGF0S0CBAgQIECAAAECBAgQIEAgTkAAEmepJQIECBAgQIAAAQIECBAgQKBQAQFIoYXRLQIECBAgQIAAAQIECBAgQCBOQAASZ6klAgQIECBAgAABAgQIECBAoFABAUihhdEtAgQIECBAgAABAgQIECBAIE5AABJnqSUCBAgQIECAAAECBAgQIECgUAEBSKGF0S0CBAgQIECAAAECBAgQIEAgTkAAEmepJQIECBAgQIAAAQIECBAgQKBQAQFIoYXRLQIECBAgQIAAAQIECBAgQCBOQAASZ6klAgQIECBAgAABAgQIECBAoFABAUihhdEtAgQIECBAgAABAgQIECBAIE5AABJnqSUCBAgQIECAAAECBAgQIECgUAEBSKGF0S0CBAgQIECAAAECBAgQIEAgTkAAEmepJQIECBAgQIAAAQIECBAgQKBQAQFIoYXRLQIECBAgQIAAAQIECBAgQCBOQAASZ6klAgQIECBAgAABAgQIECBAoFABAUihhdEtAgQIECBAgAABAgQIECBAIE5AABJnqSUCBAgQIECAAAECBAgQIECgUAEBSKGF0S0CBAgQIECAAAECBAgQIEAgTkAAEmepJQIECBAgQIAAAQIECBAgQKBQAQFIoYXRLQIECBAgQIAAAQIECBAgQCBOQAASZ6klAgQIECBAgAABAgQIECBAoFABAUihhdEtAgQIECBAgAABAgQIECBAIE5AABJnqSUCBAgQIECAAAECBAgQIECgUAEBSKGF0S0CBAgQIECAAAECBAgQIEAgTkAAEmepJQIECBAgQIAAAQIECBAgQKBQAQFIoYXRLQIECBAgQIAAAQIECBAgQCBOQAASZ6klAgQIECBAgAABAgQIECBAoFABAUihhdEtAgQIECBAgAABAgQIECBAIE5AABJnqSUCBAgQIECAAAECBAgQIECgUAEBSKGF0S0CBAgQIECAAAECBAgQIEAgTkAAEmepJQIECBAgQIAAAQIECBAgQKBQAQFIoYXRLQIECBAgQIAAAQIECBAgQCBOQAASZ6klAgQIECBAgAABAgQIECBAoFABAUihhdEtAgQIECBAgAABAgQIECBAIE5AABJnqSUCBAgQIECAAAECBAgQIECgUAEBSKGF0S0CBAgQIECAAAECBAgQIEAgTkAAEmepJQIECBAgQIAAAQIECBAgQKBQAQFIoYXRLQIECBAgQIAAAQIECBAgQCBOQAASZ6klAgQIECBAgAABAgQIECBAoFABAUihhdEtAgQIECBAgAABAgQIECBAIE5AABJnqSUCBAgQIECAAAECBAgQIECgUAEBSKGF0S0CBAgQIECAAAECBAgQIEAgTkAAEmepJQIECBAgQIAAAQIECBAgQKBQAQFIoYXRLQIECBAgQIAAAQIECBAgQCBOQAASZ6klAgQIECBAgAABAgQIECBAoFABAUihhdEtAgQIECBAgAABAgQIECBAIE5AABJnqSUCBAgQIECAAAECBAgQIECgUAEBSKGF0S0CBAgQIECAAAECBAgQIEAgTkAAEmepJQIECBAgQIAAAQIECBAgQKBQAQFIoYXRLQIECBAgQIAAAQIECBAgQCBOQAASZ6klAgQIECBAgAABAgQIECBAoFABAUihhdEtAgQIECBAgAABAgQIECBAIE5AABJnqSUCBAgQIECAAAECBAgQIECgUAEBSKGF0S0CBAgQIECAAAECBAgQIEAgTkAAEmepJQIECBAgQIAAAQIECBAgQKBQAQFIoYXRLQIECBAgQIAAAQIECBAgQCBOQAASZ6klAgQIECBAgAABAgQIECBAoFABAUihhdEtAgQIECBAgAABAgQIECBAIE5AABJnqSUCBAgQIECAAAECBAgQIECgUAEBSKGF0S0CBAgQIECAAAECBAgQIEAgTkAAEmepJQIECBAgQIAAAQIECBAgQKBQAQFIoYXRLQIECBAgQIAAAQIECBAgQCBOQAASZ6klAgQIECBAgAABAgQIECBAoFABAUihhdEtAgQIECBAgAABAgQIECBAIE5AABJnqSUCBAgQIECAAAECBAgQIECgUAEBSKGF0S0CBAgQIECAAAECBAgQIEAgTkAAEmepJQIECBBERJYzAAAZJElEQVQgQIAAAQIECBAgQKBQAQFIoYXRLQIECBAgQIAAAQIECBAgQCBOQAASZ6klAgQIECBAgAABAgQIECBAoFABAUihhdEtAgQIECBAgAABAgQIECBAIE5AABJnqSUCBAgQIECAAAECBAgQIECgUAEBSKGF0S0CBAgQIECAAAECBAgQIEAgTkAAEmepJQIECBAgQIAAAQIECBAgQKBQAQFIoYXRLQIECBAgQIAAAQIECBAgQCBOQAASZ6klAgQIECBAgAABAgQIECBAoFABAUihhdEtAgQIECBAgAABAgQIECBAIE5AABJnqSUCBAgQIECAAAECBAgQIECgUAEBSKGF0S0CBAgQIECAAAECBAgQIEAgTkAAEmepJQIECBAgQIAAAQIECBAgQKBQAQFIoYXRLQIECBAgQIAAAQIECBAgQCBOQAASZ6klAgQIECBAgAABAgQIECBAoFABAUihhdEtAgQIECBAgAABAgQIECBAIE5AABJnqSUCBAgQIECAAAECBAgQIECgUAEBSKGF0S0CBAgQIECAAAECBAgQIEAgTkAAEmepJQIECBAgQIAAAQIECBAgQKBQAQFIoYXRLQIECBAgQIAAAQIECBAgQCBOQAASZ6klAgQIECBAgAABAgQIECBAoFABAUihhdEtAgQIECBAgAABAgQIECBAIE5AABJnqSUCBAgQIECAAAECBAgQIECgUAEBSKGF0S0CBAgQIECAAAECBAgQIEAgTkAAEmepJQIECBAgQIAAAQIECBAgQKBQAQFIoYXRLQIECBAgQIAAAQIECBAgQCBOQAASZ6klAgQIECBAgAABAgQIECBAoFABAUihhdEtAgQIECBAgAABAgQIECBAIE5AABJnqSUCBAgQIECAAAECBAgQIECgUAEBSKGF0S0CBAgQIECAAAECBAgQIEAgTkAAEmepJQIECBAgQIAAAQIECBAgQKBQAQFIoYXRLQIECBAgQIAAAQIECBAgQCBOQAASZ6klAgQIECBAgAABAgQIECBAoFABAUihhdEtAgQIECBAgAABAgQIECBAIE5AABJnqSUCBAgQIECAAAECBAgQIECgUAEBSKGF0S0CBAgQIECAAAECBAgQIEAgTkAAEmepJQIECBAgQIAAAQIECBAgQKBQAQFIoYXRLQIECBAgQIAAAQIECBAgQCBOQAASZ6klAgQIECBAgAABAgQIECBAoFABAUihhdEtAgQIECBAgAABAgQIECBAIE5AABJnqSUCBAgQIECAAAECBAgQIECgUAEBSKGF0S0CBAgQIECAAAECBAgQIEAgTkAAEmepJQIECBAgQIAAAQIECBAgQKBQAQFIoYXRLQIECBAgQIAAAQIECBAgQCBOQAASZ6klAgQIECBAgAABAgQIECBAoFABAUihhdEtAgQIECBAgAABAgQIECBAIE5AABJnqSUCBAgQIECAAAECBAgQIECgUAEBSKGF0S0CBAgQIECAAAECBAgQIEAgTkAAEmepJQIECBAgQIAAAQIECBAgQKBQAQFIoYXRLQIECBAgQIAAAQIECBAgQCBOQAASZ6klAgQIECBAgAABAgQIECBAoFABAUihhdEtAgQIECBAgAABAgQIECBAIE5AABJnqSUCBAgQIECAAAECBAgQIECgUAEBSKGF0S0CBAgQIECAAAECBAgQIEAgTkAAEmepJQIECBAgQIAAAQIECBAgQKBQAQFIoYXRLQIECBAgQIAAAQIECBAgQCBOQAASZ6klAgQIECBAgAABAgQIECBAoFABAUihhdEtAgQIECBAgAABAgQIECBAIE5AABJnqSUCBAgQIECAAAECBAgQIECgUAEBSKGF0S0CBAgQIECAAAECBAgQIEAgTkAAEmepJQIECBAgQIAAAQIECBAgQKBQAQFIoYXRLQIECBAgQIAAAQIECBAgQCBOQAASZ6klAgQIECBAgAABAgQIECBAoFABAUihhdEtAgQIECBAgAABAgQIECBAIE5AABJnqSUCBAgQIECAAAECBAgQIECgUAEBSKGF0S0CBAgQIECAAAECBAgQIEAgTkAAEmepJQIECBAgQIAAAQIECBAgQKBQAQFIoYXRLQIECBAgQIAAAQIECBAgQCBOQAASZ6klAgQIECBAgAABAgQIECBAoFABAUihhdEtAgQIECBAgAABAgQIECBAIE5AABJnqSUCBAgQIECAAAECBAgQIECgUAEBSKGF0S0CBAgQIECAAAECBAgQIEAgTkAAEmepJQIECBAgQIAAAQIECBAgQKBQAQFIoYXRLQIECBAgQIAAAQIECBAgQCBOQAASZ6klAgQIECBAgAABAgQIECBAoFABAUihhdEtAgQIECBAgAABAgQIECBAIE5AABJnqSUCBAgQIECAAAECBAgQIECgUAEBSKGF0S0CBAgQIECAAAECBAgQIEAgTkAAEmepJQIECBAgQIAAAQIECBAgQKBQAQFIoYXRLQIECBAgQIAAAQIECBAgQCBOQAASZ6klAgQIECBAgAABAgQIECBAoFABAUihhdEtAgQIECBAgAABAgQIECBAIE5AABJnqSUCBAgQIECAAAECBAgQIECgUAEBSKGF0S0CBAgQIECAAAECBAgQIEAgTkAAEmepJQIECBAgQIAAAQIECBAgQKBQAQFIoYXRLQIECBAgQIAAAQIECBAgQCBOQAASZ6klAgQIECBAgAABAgQIECBAoFABAUihhdEtAgQIECBAgAABAgQIECBAIE5AABJnqSUCBAgQIECAAAECBAgQIECgUAEBSKGF0S0CBAgQIECAAAECBAgQIEAgTkAAEmepJQIECBAgQIAAAQIECBAgQKBQAQFIoYXRLQIECBAgQIAAAQIECBAgQCBOQAASZ6klAgQIECBAgAABAgQIECBAoFABAUihhdEtAgQIECBAgAABAgQIECBAIE5AABJnqSUCBAgQIECAAAECBAgQIECgUAEBSKGF0S0CBAgQIECAAAECBAgQIEAgTkAAEmepJQIECBAgQIAAAQIECBAgQKBQAQFIoYXRLQIECBAgQIAAAQIECBAgQCBOQAASZ6klAgQIECBAgAABAgQIECBAoFABAUihhdEtAgQIECBAgAABAgQIECBAIE5AABJnqSUCBAgQIECAAAECBAgQIECgUAEBSKGF0S0CBAgQIECAAAECBAgQIEAgTkAAEmepJQIECBAgQIAAAQIECBAgQKBQAQFIoYXRLQIECBAgQIAAAQIECBAgQCBOQAASZ6klAgQIECBAgAABAgQIECBAoFABAUihhdEtAgQIECBAgAABAgQIECBAIE5AABJnqSUCBAgQIECAAAECBAgQIECgUAEBSKGF0S0CBAgQIECAAAECBAgQIEAgTkAAEmepJQIECBAgQIAAAQIECBAgQKBQAQFIoYXRLQIECBAgQIAAAQIECBAgQCBOQAASZ6klAgQIECBAgAABAgQIECBAoFABAUihhdEtAgQIECBAgAABAgQIECBAIE5AABJnqSUCBAgQIECAAAECBAgQIECgUAEBSKGF0S0CBAgQIECAAAECBAgQIEAgTkAAEmepJQIECBAgQIAAAQIECBAgQKBQAQFIoYXRLQIECBAgQIAAAQIECBAgQCBOQAASZ6klAgQIECBAgAABAgQIECBAoFABAUihhdEtAgQIECBAgAABAgQIECBAIE5AABJnqSUCBAgQIECAAAECBAgQIECgUAEBSKGF0S0CBAgQIECAAAECBAgQIEAgTkAAEmepJQIECBAgQIAAAQIECBAgQKBQAQFIoYXRLQIECBAgQIAAAQIECBAgQCBOQAASZ6klAgQIECBAgAABAgQIECBAoFABAUihhdEtAgQIECBAgAABAgQIECBAIE5AABJnqSUCBAgQIECAAAECBAgQIECgUAEByP/fvh0atRqGQRj9sSg6CI42oCM6yKSjlIKmj+iAwd3rnpmsOBGR++2c1+3MP3oYtQgQIECAAAECBAgQIECAAIFOwADSWUoiQIAAAQIECBAgQIAAAQIERgUMIKOHUYsAAQIECBAgQIAAAQIECBDoBAwgnaUkAgQIECBAgAABAgQIECBAYFTAADJ6GLUIECBAgAABAgQIECBAgACBTsAA0llKIkCAAAECBAgQIECAAAECBEYFDCCjh1GLAAECBAgQIECAAAECBAgQ6AQMIJ2lJAIECBAgQIAAAQIECBAgQGBUwAAyehi1CBAgQIAAAQIECBAgQIAAgU7AANJZSiJAgAABAgQIECBAgAABAgRGBQwgo4dRiwABAgQIECBAgAABAgQIEOgEDCCdpSQCBAgQIECAAAECBAgQIEBgVMAAMnoYtQgQIECAAAECBAgQIECAAIFOwADSWUoiQIAAAQIECBAgQIAAAQIERgUMIKOHUYsAAQIECBAgQIAAAQIECBDoBAwgnaUkAgQIECBAgAABAgQIECBAYFTAADJ6GLUIECBAgAABAgQIECBAgACBTsAA0llKIkCAAAECBAgQIECAAAECBEYFDCCjh1GLAAECBAgQIECAAAECBAgQ6AQMIJ2lJAIECBAgQIAAAQIECBAgQGBUwAAyehi1CBAgQIAAAQIECBAgQIAAgU7AANJZSiJAgAABAgQIECBAgAABAgRGBQwgo4dRiwABAgQIECBAgAABAgQIEOgEDCCdpSQCBAgQIECAAAECBAgQIEBgVMAAMnoYtQgQIECAAAECBAgQIECAAIFOwADSWUoiQIAAAQIECBAgQIAAAQIERgUMIKOHUYsAAQIECBAgQIAAAQIECBDoBAwgnaUkAgQIECBAgAABAgQIECBAYFTAADJ6GLUIECBAgAABAgQIECBAgACBTsAA0llKIkCAAAECBAgQIECAAAECBEYFDCCjh1GLAAECBAgQIECAAAECBAgQ6AQMIJ2lJAIECBAgQIAAAQIECBAgQGBUwAAyehi1CBAgQIAAAQIECBAgQIAAgU7AANJZSiJAgAABAgQIECBAgAABAgRGBQwgo4dRiwABAgQIECBAgAABAgQIEOgEDCCdpSQCBAgQIECAAAECBAgQIEBgVMAAMnoYtQgQIECAAAECBAgQIECAAIFOwADSWUoiQIAAAQIECBAgQIAAAQIERgUMIKOHUYsAAQIECBAgQIAAAQIECBDoBAwgnaUkAgQIECBAgAABAgQIECBAYFTAADJ6GLUIECBAgAABAgQIECBAgACBTsAA0llKIkCAAAECBAgQIECAAAECBEYFDCCjh1GLAAECBAgQIECAAAECBAgQ6AQMIJ2lJAIECBAgQIAAAQIECBAgQGBUwAAyehi1CBAgQIAAAQIECBAgQIAAgU7AANJZSiJAgAABAgQIECBAgAABAgRGBQwgo4dRiwABAgQIECBAgAABAgQIEOgEDCCdpSQCBAgQIECAAAECBAgQIEBgVMAAMnoYtQgQIECAAAECBAgQIECAAIFOwADSWUoiQIAAAQIECBAgQIAAAQIERgUMIKOHUYsAAQIECBAgQIAAAQIECBDoBAwgnaUkAgQIECBAgAABAgQIECBAYFTAADJ6GLUIECBAgAABAgQIECBAgACBTsAA0llKIkCAAAECBAgQIECAAAECBEYFDCCjh1GLAAECBAgQIECAAAECBAgQ6AQMIJ2lJAIECBAgQIAAAQIECBAgQGBUwAAyehi1CBAgQIAAAQIECBAgQIAAgU7AANJZSiJAgAABAgQIECBAgAABAgRGBQwgo4dRiwABAgQIECBAgAABAgQIEOgEDCCdpSQCBAgQIECAAAECBAgQIEBgVMAAMnoYtQgQIECAAAECBAgQIECAAIFOwADSWUoiQIAAAQIECBAgQIAAAQIERgUMIKOHUYsAAQIECBAgQIAAAQIECBDoBAwgnaUkAgQIECBAgAABAgQIECBAYFTAADJ6GLUIECBAgAABAgQIECBAgACBTsAA0llKIkCAAAECBAgQIECAAAECBEYFDCCjh1GLAAECBAgQIECAAAECBAgQ6AQMIJ2lJAIECBAgQIAAAQIECBAgQGBUwAAyehi1CBAgQIAAAQIECBAgQIAAgU7AANJZSiJAgAABAgQIECBAgAABAgRGBQwgo4dRiwABAgQIECBAgAABAgQIEOgEDCCdpSQCBAgQIECAAAECBAgQIEBgVMAAMnoYtQgQIECAAAECBAgQIECAAIFOwADSWUoiQIAAAQIECBAgQIAAAQIERgUMIKOHUYsAAQIECBAgQIAAAQIECBDoBAwgnaUkAgQIECBAgAABAgQIECBAYFTAADJ6GLUIECBAgAABAgQIECBAgACBTsAA0llKIkCAAAECBAgQIECAAAECBEYFDCCjh1GLAAECBAgQIECAAAECBAgQ6AQMIJ2lJAIECBAgQIAAAQIECBAgQGBUwAAyehi1CBAgQIAAAQIECBAgQIAAgU7AANJZSiJAgAABAgQIECBAgAABAgRGBQwgo4dRiwABAgQIECBAgAABAgQIEOgEDCCdpSQCBAgQIECAAAECBAgQIEBgVMAAMnoYtQgQIECAAAECBAgQIECAAIFOwADSWUoiQIAAAQIECBAgQIAAAQIERgUMIKOHUYsAAQIECBAgQIAAAQIECBDoBAwgnaUkAgQIECBAgAABAgQIECBAYFTAADJ6GLUIECBAgAABAgQIECBAgACBTsAA0llKIkCAAAECBAgQIECAAAECBEYFDCCjh1GLAAECBAgQIECAAAECBAgQ6AT+OYC8vb0d39/f3SuSCBAgQIAAAQIECBAgQIAAAQIPFHh+fj5ut9vxdP/9/fX4+Pg4zufz8f7+/sBqniZAgAABAgQIECBAgAABAgQINAI+gWkcpRAgQIAAAQIECBAgQIAAAQLDAgaQ4eOoRoAAAQIECBAgQIAAAQIECDQCBpDGUQoBAgQIECBAgAABAgQIECAwLGAAGT6OagQIECBAgAABAgQIECBAgEAjYABpHKUQIECAAAECBAgQIECAAAECwwIGkOHjqEaAAAECBAgQIECAAAECBAg0AgaQxlEKAQIECBAgQIAAAQIECBAgMCxgABk+jmoECBAgQIAAAQIECBAgQIBAI2AAaRylECBAgAABAgQIECBAgAABAsMCBpDh46hGgAABAgQIECBAgAABAgQINAIGkMZRCgECBAgQIECAAAECBAgQIDAsYAAZPo5qBAgQIECAAAECBAgQIECAQCNgAGkcpRAgQIAAAQIECBAgQIAAAQLDAgaQ4eOoRoAAAQIECBAgQIAAAQIECDQCBpDGUQoBAgQIECBAgAABAgQIECAwLGAAGT6OagQIECBAgAABAgQIECBAgEAjYABpHKUQIECAAAECBAgQIECAAAECwwIGkOHjqEaAAAECBAgQIECAAAECBAg0AgaQxlEKAQIECBAgQIAAAQIECBAgMCxgABk+jmoECBAgQIAAAQIECBAgQIBAI2AAaRylECBAgAABAgQIECBAgAABAsMCBpDh46hGgAABAgQIECBAgAABAgQINAIGkMZRCgECBAgQIECAAAECBAgQIDAsYAAZPo5qBAgQIECAAAECBAgQIECAQCNgAGkcpRAgQIAAAQIECBAgQIAAAQLDAgaQ4eOoRoAAAQIECBAgQIAAAQIECDQCBpDGUQoBAgQIECBAgAABAgQIECAwLGAAGT6OagQIECBAgAABAgQIECBAgEAjYABpHKUQIECAAAECBAgQIECAAAECwwIGkOHjqEaAAAECBAgQIECAAAECBAg0AgaQxlEKAQIECBAgQIAAAQIECBAgMCxgABk+jmoECBAgQIAAAQIECBAgQIBAI2AAaRylECBAgAABAgQIECBAgAABAsMCBpDh46hGgAABAgQIECBAgAABAgQINAIGkMZRCgECBAgQIECAAAECBAgQIDAsYAAZPo5qBAgQIECAAAECBAgQIECAQCNgAGkcpRAgQIAAAQIECBAgQIAAAQLDAgaQ4eOoRoAAAQIECBAgQIAAAQIECDQCBpDGUQoBAgQIECBAgAABAgQIECAwLGAAGT6OagQIECBAgAABAgQIECBAgEAjYABpHKUQIECAAAECBAgQIECAAAECwwIGkOHjqEaAAAECBAgQIECAAAECBAg0AgaQxlEKAQIECBAgQIAAAQIECBAgMCxgABk+jmoECBAgQIAAAQIECBAgQIBAI2AAaRylECBAgAABAgQIECBAgAABAsMCBpDh46hGgAABAgQIECBAgAABAgQINAIGkMZRCgECBAgQIECAAAECBAgQIDAsYAAZPo5qBAgQIECAAAECBAgQIECAQCNgAGkcpRAgQIAAAQIECBAgQIAAAQLDAgaQ4eOoRoAAAQIECBAgQIAAAQIECDQCBpDGUQoBAgQIECBAgAABAgQIECAwLGAAGT6OagQIECBAgAABAgQIECBAgEAjYABpHKUQIECAAAECBAgQIECAAAECwwIGkOHjqEaAAAECBAgQIECAAAECBAg0Av8dQF5fX4/T6dS8IoUAAQIECBAgQIAAAQIECBAg8ECBy+Vy3O/34+n37/7X43q9Hl9fXw+s5WkCBAgQIECAAAECBAgQIECAQCfw8vJyfH5+Hj/WM+zh/DmGFAAAAABJRU5ErkJggg==;" parent="1" vertex="1">
          <mxGeometry x="-800" y="40" width="1088" height="757" as="geometry" />
        </mxCell>
        <mxCell id="_kecTIgdlm-mXU0su9hx-3" value="" style="html=1;dashed=0;whiteSpace=wrap;shape=mxgraph.dfd.check2" parent="1" vertex="1">
          <mxGeometry x="-360" y="990" width="100" height="50" as="geometry" />
        </mxCell>
        <mxCell id="_kecTIgdlm-mXU0su9hx-4" value="" style="html=1;dashed=0;whiteSpace=wrap;shape=mxgraph.dfd.check2;direction=west;" parent="1" vertex="1">
          <mxGeometry x="-310" y="990" width="100" height="50" as="geometry" />
        </mxCell>
        <mxCell id="_kecTIgdlm-mXU0su9hx-5" value="Печка&lt;br&gt;&lt;br&gt;&lt;span style=&quot;white-space: pre;&quot;&gt;&#x9;&lt;/span&gt;&lt;span style=&quot;white-space: pre;&quot;&gt;&#x9;&lt;/span&gt;&lt;span style=&quot;white-space: pre;&quot;&gt;&#x9;&lt;/span&gt;Е0" style="html=1;dashed=0;whiteSpace=wrap;" parent="1" vertex="1">
          <mxGeometry x="288" y="900" width="100" height="50" as="geometry" />
        </mxCell>
      </root>
    </mxGraphModel>
  </diagram>
</mxfile>
